<?xml version="1.0" standalone="no"?>
<!DOCTYPE svg PUBLIC "-//W3C//DTD SVG 20010904//EN"
 "http://www.w3.org/TR/2001/REC-SVG-20010904/DTD/svg10.dtd">
<svg version="1.0" xmlns="http://www.w3.org/2000/svg"
 width="700.000000pt" height="700.000000pt" viewBox="0 0 700.000000 700.000000"
 preserveAspectRatio="xMidYMid meet">
<metadata>
Created by potrace 1.14, written by Peter Selinger 2001-2017
</metadata>
<g transform="translate(0.000000,700.000000) scale(0.100000,-0.100000)"
fill="#000000" stroke="none">
<path d="M2585 6508 c-621 -31 -1223 -327 -1630 -800 -178 -207 -339 -477
-430 -722 -47 -128 -98 -331 -121 -481 -25 -164 -25 -494 -1 -655 96 -634 421
-1178 929 -1555 l97 -72 -25 -24 c-75 -70 -180 -247 -223 -376 -99 -294 -49
-639 131 -900 135 -197 327 -334 573 -410 l90 -28 1785 0 c1923 0 1832 -2
1999 52 186 60 348 159 486 298 351 351 457 869 270 1320 -163 394 -511 670
-936 741 -116 19 -327 15 -435 -9 l-61 -14 -28 66 c-33 79 -112 221 -153 275
l-30 40 19 43 c10 23 36 98 58 167 152 476 149 974 -10 1451 -307 927 -1163
1564 -2144 1597 -44 2 -138 0 -210 -4z m1290 -2989 c373 -46 703 -277 877
-614 25 -50 56 -121 68 -159 26 -78 67 -131 125 -157 54 -25 103 -24 220 6
190 49 421 30 597 -48 139 -62 295 -189 384 -314 57 -78 119 -211 146 -310 31
-113 31 -344 0 -458 -88 -322 -332 -571 -654 -666 -69 -21 -99 -22 -618 -29
-685 -10 -1860 -10 -2520 -1 l-505 7 -83 31 c-114 44 -194 95 -278 178 -82 81
-142 177 -180 290 -39 114 -45 286 -15 406 82 328 377 560 710 559 101 -1 133
-6 242 -35 64 -18 69 -18 113 -1 77 29 89 57 97 216 17 325 126 568 351 786
99 96 176 149 301 209 199 96 406 130 622 104z"/>
</g>
</svg>
